<?xml version="1.0" standalone="no"?>
<!DOCTYPE svg PUBLIC "-//W3C//DTD SVG 20010904//EN"
 "http://www.w3.org/TR/2001/REC-SVG-20010904/DTD/svg10.dtd">
<svg version="1.0" xmlns="http://www.w3.org/2000/svg"
 width="128.000000pt" height="128.000000pt" viewBox="0 0 128.000000 128.000000"
 preserveAspectRatio="xMidYMid meet">
<metadata>
Created by potrace 1.14, written by Peter Selinger 2001-2017
</metadata>
<g transform="translate(0.000000,128.000000) scale(0.100000,-0.100000)"
fill="#000000" stroke="none">
<path d="M90 640 l0 -550 550 0 550 0 0 550 0 550 -550 0 -550 0 0 -550z m300
0 l0 -360 -50 0 -50 0 0 360 0 360 50 0 50 0 0 -360z m300 0 l0 -360 -50 0
-50 0 0 360 0 360 50 0 50 0 0 -360z m300 0 l0 -360 -50 0 -50 0 0 360 0 360
50 0 50 0 0 -360z"/>
</g>
</svg>
